<svg xmlns="http://www.w3.org/2000/svg" version="1.1" xmlns:xlink="http://www.w3.org/1999/xlink" xmlns:svgjs="http://svgjs.dev/svgjs" width="1000" height="1000" viewBox="0 0 1000 1000"><rect width="1000" height="1000" fill="#c56e33"></rect><g transform="matrix(0.7,0,0,0.7,150.1276783582527,212.18366956990513)"><svg viewBox="0 0 300 247" data-background-color="#c56e33" preserveAspectRatio="xMidYMid meet" height="823" width="1000" xmlns="http://www.w3.org/2000/svg" xmlns:xlink="http://www.w3.org/1999/xlink"><g id="tight-bounds" transform="matrix(1,0,0,1,-0.05471929639401196,-0.09997365579206985)"><svg viewBox="0 0 300.109438592788 247.2" height="247.2" width="300.109438592788"><g><svg viewBox="0 0 300.109438592788 247.2" height="247.2" width="300.109438592788"><g><svg viewBox="0 0 300.109438592788 247.2" height="247.2" width="300.109438592788"><g id="textblocktransform"><svg viewBox="0 0 300.109438592788 247.2" height="247.2" width="300.109438592788" id="textblock"><g><svg viewBox="0 0 300.109438592788 247.2" height="247.2" width="300.109438592788"><path d="M299.407 53.02C297.996 27.36 293.975 20.227 293.975 20.227 281.63-6.202 266.223-0.506 252.382 3.292 227.946 3.446 203.608 9.091 179.228 12.119 128.056 12.581 76.446 4.986 25.527 23.717 20.744 29.464-4.962 24.846 0.851 56.304 2.374 69.39 7.933 83.913 7.764 95.922 8.526 98.026 9.584 93.202 10.036 96.23 11.616 104.39 14.198 100.541 16.314 105.365 13.365 118.246 15.482 128.971 17.499 140.21 13.944 143.135 9.387 141.749 7.341 151.449 7.129 158.479 5.986 157.145 4.731 156.837 3.814 156.632 1.965 157.402 2.276 159.608 3.334 167.152-1.209 171.514 1.641 178.904-0.32 186.91 2.995 193.838 2.544 202.511 2.487 204.255 2.798 205.744 3.292 206.154 5.478 208.361 2.29 212.672 2.628 217.342 25.061 249.262 49.399 227.195 72.382 241.872 78.35 231.608 73.864 245.516 76.248 243.36 78.11 240.846 79.465 251.263 81.567 245.362 81.892 243.668 81.398 239.665 82.555 240.435 83.161 240.846 83.698 240.743 83.782 238.382 83.909 234.841 82.795 237.048 82.498 235.201 85.701 225.861 84.911 248.081 87.916 247.158 87.775 244.438 86.9 240.538 88.692 241.051 90.47 237.151 90.526 233.918 92.106 242.693 92.163 244.592 92.445 245.926 92.896 246.85 97.835 237.305 102.744 250.237 107.922 245.926 111.097 241.205 114.144 248.492 117.361 246.696 118.49 245.259 119.633 242.693 120.719 247.004 134.024 247.928 148.203 244.079 160.816 247.158 194.522 241.41 230.542 249.518 266.082 241.923 274.462 238.998 283.168 234.841 291.337 231.506 291.337 231.506 297.954 222.371 297.954 181.316S299.364 145.393 299.576 112.703C299.788 80.013 300.775 78.679 299.364 53.02Z" opacity="1" fill="#2a160c" data-fill-palette-color="tertiary"></path><g transform="matrix(1,0,0,1,55.76831999999999,26.230666666666668)"><svg width="188.57279859278805" viewBox="0.81 -37.01 35.839999999999996 37.01" height="194.73866666666666" data-palette-color="#c56e33"><path d="M20.95-30.3L20.95-37.01 36.65-37.01 36.65-30.3 35.38-30.3 24.17-18.41 35.35-6.69 36.55-6.69 36.55 0 20.85 0 20.85-6.69 24.58-6.69 18.87-12.74 13.18-6.69 16.5-6.69 16.5 0 0.81 0 0.81-6.69 2.49-6.69 13.53-18.41 2.22-30.3 0.9-30.3 0.9-37.01 16.6-37.01 16.6-30.3 12.87-30.3 18.82-24.02 24.73-30.3 20.95-30.3Z" opacity="1" transform="matrix(1,0,0,1,0,0)" fill="#c56e33" class="wordmark-text-0" data-fill-palette-color="quaternary" id="text-0"></path></svg></g></svg></g></svg></g></svg></g><g></g></svg></g><defs></defs></svg><rect width="300.109438592788" height="247.2" fill="none" stroke="none" visibility="hidden"></rect></g></svg></g></svg>